# xmcd
#
# Track frame offsets: 
#        150
#        12682
#        28734
#        41799
#        62651
#        84182
#        99598
#        116402
#        128406
#        142437
#        156365
#        175713
#
# Disc length: 2494 seconds
#
# Revision: 0
# Processed by: cddbd v1.5.2PL0 Copyright (c) Steve Scherf et al.
# Submitted via: ExactAudioCopy v0.99pb3
#
DISCID=a009bc0c
DTITLE=Billt T Band - A little mixed up
DYEAR=2007
DGENRE=Blues
TTITLE0=Boogie Woogie Country Girl
TTITLE1=Love Sickness
TTITLE2=A little Mixed up
TTITLE3=Can't be good
TTITLE4=Groovin
TTITLE5=Don't you mess with my money
TTITLE6=Don't do it
TTITLE7=Ordinary girl
TTITLE8=Buzz Buzz Buzz
TTITLE9=Lipstick, powder and paint
TTITLE10=Lovers rock
TTITLE11=Oscar's bounce
EXTD=
EXTT0=
EXTT1=
EXTT2=
EXTT3=
EXTT4=
EXTT5=
EXTT6=
EXTT7=
EXTT8=
EXTT9=
EXTT10=
EXTT11=
PLAYORDER=
